:SAMPLES-PER-SECOND 30
:FULLY-SPECIFIED
:DEGREES
926
root  3.45011 36.6097 -1.06413 -4.00957 76.9672 -5.49121
RightUpLeg  -33.4508 -5.44423 -0.758461
RightLeg  35.1988 1.79588 1.06972
RightFoot  -1.23535 0.191484 -2.90833
RightToes  -1.16417e-010 0 -3.6325e-017
Spine  27.9241 0.722036 -2.61178
Spine1  -1.6779 0.263009 -2.71057
HEad  -34.3562 -19.5631 9.69364
LeftShoulder1  0.225912 2.70976 -21.9321
LeftArm  -17.3401 -9.70289 -46.6842
LeftForeArm  95.3872 -80.5173 -79.8138
LeftHand  -0.0465431 4.75674 4.75604
RightShoulder  -0.438468 -4.8608 25.324
RightArm  -2.94561 5.01936 46.5509
RightForeArm  25.7112 59.7551 17.1086
RightHand  -0.326846 3.95866 -4.34302
LeftUpLeg  -33.3073 17.202 7.36006
LeftLeg  34.4124 0.141474 0.516338
LeftFoot  -0.589189 0.233293 -2.48313
LeftToes  3.13772e-010 -3.14513e-011 3.96022e-013
927
root  3.88211 35.1461 -0.951669 -7.86531 76.5453 -7.81293
RightUpLeg  -37.2282 -4.54323 -0.466377
RightLeg  47.1018 0.951472 0.783137
RightFoot  -6.4932 0.103069 -3.27155
RightToes  -1.16417e-010 0 -3.6325e-017
Spine  30.4708 1.3268 -5.58861
Spine1  -1.35408 -0.320421 -0.426001
HEad  -32.5994 -20.8862 10.3343
LeftShoulder1  0.12179 3.05366 -20.5651
LeftArm  -18.4191 -19.9873 -48.9853
LeftForeArm  103.644 -80.5873 -89.2306
LeftHand  -0.0683816 4.14053 4.60063
RightShoulder  -0.241722 -4.29027 23.4903
RightArm  -4.50612 12.6973 49.3919
RightForeArm  31.757 65.5905 22.1081
RightHand  -0.294341 2.8418 -4.40874
LeftUpLeg  -36.3817 18.6322 9.3642
LeftLeg  43.2847 -0.936835 -0.587382
LeftFoot  -2.60927 0.163828 -1.90565
LeftToes  3.13772e-010 -3.14513e-011 3.96022e-013
928
root  4.21001 33.3976 -0.879783 -18.9391 77.7443 -17.5941
RightUpLeg  -41.0798 -6.51948 1.04807
RightLeg  58.3329 0.778819 0.883966
RightFoot  -11.278 -0.0829714 -3.1523
RightToes  -1.16417e-010 0 -3.6325e-017
Spine  32.3386 1.19485 -6.35049
Spine1  0.165288 -1.35231 1.93651
HEad  -33.0452 -21.935 11.517
LeftShoulder1  0.135867 2.97661 -19.2921
LeftArm  -17.503 -31.56 -52.2959
LeftForeArm  94.8452 -80.4063 -80.6119
LeftHand  -0.0652974 4.04711 4.03998
RightShoulder  -0.169888 -4.0655 22.5368
RightArm  -6.60695 20.126 51.0111
RightForeArm  40.6846 71.57 30.824
RightHand  -0.325485 4.63669 -4.046
LeftUpLeg  -42.3341 18.5104 11.3599
LeftLeg  56.2035 -1.14824 -1.26932
LeftFoot  -5.76609 0.0514158 -0.308795
LeftToes  3.13772e-010 -3.14513e-011 3.96022e-013
929
root  4.74611 32.3058 -0.784419 -35.1433 78.7338 -33.3295
RightUpLeg  -42.2281 -9.46011 3.5403
RightLeg  64.2845 0.624645 0.804851
RightFoot  -15.4454 -0.242714 -4.03403
RightToes  -1.16417e-010 0 -3.6325e-017
Spine  32.4493 1.35903 -6.50964
Spine1  3.75745 -1.97839 4.75632
HEad  -33.5767 -22.9049 13.1058
LeftShoulder1  0.293686 2.29875 -17.8106
LeftArm  -14.3527 -41.6475 -57.1267
LeftForeArm  77.472 -79.3547 -60.997
LeftHand  -0.0908092 3.24146 4.0954
RightShoulder  -0.0904773 -3.79744 21.9191
RightArm  -8.96652 26.3787 51.2016
RightForeArm  55.9315 76.7327 46.1403
RightHand  -0.399574 4.58548 -4.94201
LeftUpLeg  -45.6188 16.2695 14.3138
LeftLeg  63.4503 -0.592926 -0.679037
LeftFoot  -8.36964 0.0071085 1.2349
LeftToes  3.13772e-010 -3.14513e-011 3.96022e-013
930
root  5.17176 31.3345 -0.662061 -41.571 77.8382 -40.246
RightUpLeg  -44.5792 -9.52947 5.15777
RightLeg  69.3984 0.526364 0.744635
RightFoot  -18.4722 -0.319031 -3.10333
RightToes  -1.16417e-010 0 -3.6325e-017
Spine  33.5691 2.47074 -8.16565
Spine1  3.59505 -1.72263 6.58231
HEad  -32.3878 -23.2645 14.2475
LeftShoulder1  0.377061 1.82534 -15.5642
LeftArm  -10.309 -46.3885 -62.6618
LeftForeArm  71.5085 -78.3255 -51.3301
LeftHand  -0.0767999 3.36625 3.51288
RightShoulder  -0.036592 -3.611 21.0068
RightArm  -8.96149 29.4715 52.7058
RightForeArm  78.9554 79.6821 68.1993
RightHand  -0.439758 5.43766 -5.01957
LeftUpLeg  -47.9919 15.2062 16.9073
LeftLeg  68.728 -0.501355 -0.611039
LeftFoot  -13.1542 0.0831144 0.0444307
LeftToes  3.13772e-010 -3.14513e-011 3.96022e-013
931
root  5.60533 30.5343 -0.615822 -46.4644 77.5392 -46.1262
RightUpLeg  -46.9994 -9.73778 6.18599
RightLeg  73.634 0.393327 0.461045
RightFoot  -20.7858 -0.342764 -2.44721
RightToes  -1.16417e-010 0 -3.6325e-017
Spine  34.7359 2.91665 -9.31528
Spine1  2.15592 -1.95527 7.86065
HEad  -30.9347 -23.6147 15.1116
LeftShoulder1  0.339318 1.93221 -14.693
LeftArm  -5.99028 -48.0858 -66.1878
LeftForeArm  74.0177 -78.3149 -50.0141
LeftHand  -0.0975958 2.56972 3.54698
RightShoulder  0.0114765 -3.43654 20.3781
RightArm  -6.65572 30.4107 55.0648
RightForeArm  103.127 80.3132 93.9052
RightHand  -0.514329 5.7029 -5.71448
LeftUpLeg  -51.1887 14.3799 18.3253
LeftLeg  73.4408 -0.321038 -0.183565
LeftFoot  -14.8308 0.0815865 -0.253727
LeftToes  3.13772e-010 -3.14513e-011 3.96022e-013
